:SAMPLES-PER-SECOND 30
:FULLY-SPECIFIED
:DEGREES
390
root  40.4116 39.1738 -19.5947 -1.972 27.264 2.7245
RightUpLeg  -0.971557 -6.40713 7.08011
RightLeg  17.6241 -7.12142 1.86662
RightFoot  -13.3666 -0.379387 -16.2611
RightToes  -4.65663e-010 0 -3.6325e-017
Spine  2.12563 0.948054 11.8119
Spine1  7.97667 2.61673 -3.04708
HEad  -9.69707 16.2664 -3.29321
LeftShoulder1  8.55454 -11.5672 -49.5443
LeftArm  -8.41738 24.6992 -26.1888
LeftForeArm  25.5651 -10.0064 -5.50668
LeftHand  -0.244104 0.0205437 5.32207
RightShoulder  6.22082 9.65465 41.074
RightArm  -0.148203 -8.70068 36.6784
RightForeArm  7.17342 19.1502 5.08075
RightHand  -1.14993 3.05074 -15.962
LeftUpLeg  -16.8556 4.6469 6.87536
LeftLeg  53.0458 6.21453 9.2604
LeftFoot  1.40008 0.144716 -1.41822
LeftToes  -7.27628e-011 -1.6005e-012 -1.37987e-011
391
root  41.1497 39.2699 -18.6243 -1.52945 22.3761 3.34042
RightUpLeg  1.54786 -5.99112 5.75937
RightLeg  16.6618 -2.59926 2.52516
RightFoot  -14.0765 -0.482134 -16.1188
RightToes  -4.65663e-010 0 -3.6325e-017
Spine  2.1748 1.54984 11.8185
Spine1  7.98419 3.48298 -4.5663
HEad  -10.1268 19.0204 -3.40462
LeftShoulder1  8.70509 -11.6962 -49.9873
LeftArm  -8.58197 27.2942 -27.6296
LeftForeArm  27.6557 -7.02064 -5.4595
LeftHand  -0.244104 0.0205437 5.32207
RightShoulder  6.29494 9.72121 41.377
RightArm  5.51853 -6.31096 36.8472
RightForeArm  5.14182 24.7924 4.92309
RightHand  -1.11991 2.88705 -15.8497
LeftUpLeg  -18.4543 3.69225 6.82128
LeftLeg  45.2992 6.53125 7.43971
LeftFoot  -0.362191 0.230863 -2.37835
LeftToes  -7.27628e-011 -1.6005e-012 -1.37987e-011
392
root  41.8626 39.2957 -17.606 -1.19438 18.422 3.78255
RightUpLeg  3.90687 -5.84609 4.36465
RightLeg  15.8647 1.23936 2.9456
RightFoot  -15.0749 -0.621465 -15.8438
RightToes  -4.65663e-010 0 -3.6325e-017
Spine  1.84146 1.82677 11.5992
Spine1  8.2215 3.88733 -5.66979
HEad  -10.7038 21.6637 -3.64013
LeftShoulder1  8.83195 -11.8508 -50.2048
LeftArm  -8.66623 29.9791 -29.4103
LeftForeArm  28.58 -5.83616 -5.34351
LeftHand  -0.244104 0.0205437 5.32207
RightShoulder  6.30612 9.72671 41.4374
RightArm  7.31571 -4.27208 36.9248
RightForeArm  7.47671 29.8198 6.08442
RightHand  -1.03415 2.4892 -15.3745
LeftUpLeg  -19.2619 2.42276 6.92229
LeftLeg  35.4759 5.77616 4.77266
LeftFoot  -0.530333 0.339975 -3.55481
LeftToes  -7.27628e-011 -1.6005e-012 -1.37987e-011
393
root  42.5424 39.3077 -16.5383 -0.78978 15.2019 4.04083
RightUpLeg  6.20234 -5.96386 2.90509
RightLeg  14.7195 4.79851 3.37709
RightFoot  -15.8077 -0.718708 -15.5891
RightToes  -4.65663e-010 0 -3.6325e-017
Spine  1.08453 2.02585 11.3849
Spine1  8.59714 4.14754 -6.75116
HEad  -11.132 23.8987 -3.97609
LeftShoulder1  8.89028 -11.9864 -50.0958
LeftArm  -9.21464 32.4755 -31.252
LeftForeArm  28.6422 -5.80681 -5.25268
LeftHand  -0.244104 0.0205437 5.32207
RightShoulder  6.241 9.65643 41.2121
RightArm  8.66899 -2.98459 37.1544
RightForeArm  8.97467 34.41 7.18377
RightHand  -0.925937 1.79554 -15.08
LeftUpLeg  -19.4464 1.58321 6.84776
LeftLeg  24.2211 4.04765 2.37371
LeftFoot  0.260335 0.418063 -4.12669
LeftToes  -7.27628e-011 -1.6005e-012 -1.37987e-011
394
root  43.1819 39.3067 -15.4498 -0.406754 12.1612 4.31114
RightUpLeg  8.47355 -6.30517 1.18391
RightLeg  13.5258 8.6376 3.76811
RightFoot  -16.1585 -0.761558 -15.4096
RightToes  -4.65663e-010 0 -3.6325e-017
Spine  0.390079 2.36025 11.007
Spine1  8.98869 4.57183 -7.80702
HEad  -11.4811 25.6103 -4.35226
LeftShoulder1  8.86833 -12.013 -49.8883
LeftArm  -9.83332 34.2883 -32.5594
LeftForeArm  28.3359 -6.21145 -5.16566
LeftHand  -0.244104 0.0205437 5.32207
RightShoulder  6.20221 9.60202 41.1192
RightArm  9.64506 -2.3095 36.9212
RightForeArm  9.54177 38.3344 8.27574
RightHand  -0.835045 1.1076 -15.0063
LeftUpLeg  -19.1112 2.75439 6.31289
LeftLeg  12.9047 1.7702 0.55429
LeftFoot  1.06442 0.611961 -5.68535
LeftToes  -7.27628e-011 -1.6005e-012 -1.37987e-011
395
root  43.8169 39.2186 -14.3349 -0.35997 9.30934 4.5489
RightUpLeg  10.6337 -6.8027 -0.734717
RightLeg  13.207 12.3124 4.0814
RightFoot  -16.8786 -0.843007 -14.9974
RightToes  -4.65663e-010 0 -3.6325e-017
Spine  0.190977 2.68314 10.6901
Spine1  9.27001 5.05971 -8.69776
HEad  -11.955 26.9275 -4.64495
LeftShoulder1  8.81303 -11.9539 -49.7671
LeftArm  -10.0948 35.065 -32.9292
LeftForeArm  28.0217 -6.52531 -5.13849
LeftHand  -0.244104 0.0205437 5.32207
RightShoulder  6.25323 9.64753 41.3293
RightArm  10.2826 -1.8619 36.2332
RightForeArm  9.92513 40.8191 9.03462
RightHand  -0.763365 0.611041 -14.8312
LeftUpLeg  -18.491 4.33047 5.96121
LeftLeg  3.94626 1.27917 -1.44612
LeftFoot  1.20936 0.951367 -8.72172
LeftToes  -7.27628e-011 -1.6005e-012 -1.37987e-011
396
root  44.4808 39.0274 -13.1632 -0.739014 7.00218 4.50693
RightUpLeg  12.681 -7.11281 -2.40022
RightLeg  13.948 14.9574 4.33964
RightFoot  -18.0919 -0.949243 -13.9577
RightToes  -4.65663e-010 0 -3.6325e-017
Spine  0.39309 2.81187 10.924
Spine1  9.45251 5.41819 -9.54235
HEad  -12.4302 28.0138 -4.82555
LeftShoulder1  8.78419 -11.9328 -49.6722
LeftArm  -9.85269 34.7908 -32.4777
LeftForeArm  27.9397 -6.49567 -5.19037
LeftHand  -0.244104 0.0205437 5.32207
RightShoulder  6.31133 9.73417 41.4494
RightArm  10.4334 -1.62261 35.7998
RightForeArm  10.0516 41.2075 9.15877
RightHand  -0.749043 0.511159 -14.7929
LeftUpLeg  -18.0621 4.19033 5.94663
LeftLeg  -0.371287 3.10913 -3.36877
LeftFoot  1.34133 1.19387 -10.7738
LeftToes  -7.27628e-011 -1.6005e-012 -1.37987e-011
397
root  45.1553 38.8098 -11.9253 -1.32166 5.12796 4.25035
RightUpLeg  14.6943 -6.57283 -3.49625
RightLeg  15.0734 16.2793 4.3518
RightFoot  -18.8733 -0.95323 -12.4827
RightToes  -4.65663e-010 0 -3.6325e-017
Spine  0.654519 2.86083 11.2976
Spine1  9.66448 5.66006 -10.0833
HEad  -12.5153 29.0421 -4.95538
LeftShoulder1  8.78294 -11.9576 -49.5861
LeftArm  -9.32297 33.7642 -31.5334
LeftForeArm  28.3377 -6.20056 -5.26399
LeftHand  -0.244104 0.0205437 5.32207
RightShoulder  6.30287 9.77567 41.25
RightArm  10.4807 -1.72173 35.724
RightForeArm  9.11779 39.539 8.6796
RightHand  -0.838982 1.02765 -15.2508
LeftUpLeg  -18.0776 4.06385 5.11556
LeftLeg  0.20281 3.83112 -3.66848
LeftFoot  3.48496 1.23775 -9.73951
LeftToes  -7.27628e-011 -1.6005e-012 -1.37987e-011
398
root  45.8002 38.5977 -10.5972 -1.99112 3.19354 4.2269
RightUpLeg  16.5767 -4.16274 -4.09149
RightLeg  16.5751 15.8086 4.16925
RightFoot  -19.0246 -0.859471 -10.8717
RightToes  -4.65663e-010 0 -3.6325e-017
Spine  0.823305 3.03047 10.5769
Spine1  9.82304 5.74831 -9.52832
HEad  -12.0642 30.3019 -4.92683
LeftShoulder1  8.76336 -11.889 -49.6954
LeftArm  -8.73892 32.3162 -30.1905
LeftForeArm  28.9145 -5.91918 -5.33184
LeftHand  -0.244104 0.0205437 5.32207
RightShoulder  6.32663 9.8225 41.2604
RightArm  11.1111 -1.89496 35.2702
RightForeArm  7.43364 35.9566 7.71054
RightHand  -0.973187 1.89323 -15.6319
LeftUpLeg  -18.403 4.29705 3.82295
LeftLeg  4.42054 3.07724 -2.82818
LeftFoot  7.3016 1.10571 -6.99294
LeftToes  -7.27628e-011 -1.6005e-012 -1.37987e-011
399
root  46.3695 38.4286 -9.20841 -2.72514 1.0771 4.81291
RightUpLeg  17.8251 0.25733 -4.61017
RightLeg  19.2101 13.3352 4.40289
RightFoot  -18.6291 -0.649557 -8.26385
RightToes  -4.65663e-010 0 -3.6325e-017
Spine  1.00075 3.23663 8.23016
Spine1  9.77513 5.5575 -7.93555
HEad  -11.3432 32.0128 -4.49034
LeftShoulder1  8.71463 -11.7046 -50.0144
LeftArm  -8.05673 30.4737 -28.374
LeftForeArm  28.9363 -5.76249 -5.46659
LeftHand  -0.244104 0.0205437 5.32207
RightShoulder  6.49856 9.95565 42.0145
RightArm  12.4196 -1.76861 34.3928
RightForeArm  5.78803 30.1828 6.18668
RightHand  -1.05514 2.65331 -15.3761
LeftUpLeg  -18.7358 7.13797 1.78302
LeftLeg  10.3901 -0.213403 -1.76482
LeftFoot  9.02287 0.978295 -5.73488
LeftToes  -7.27628e-011 -1.6005e-012 -1.37987e-011
400
root  46.8546 38.4012 -7.87007 -3.37022 -1.05077 5.85854
RightUpLeg  17.2082 3.37213 -6.17749
RightLeg  24.4167 11.7796 5.65742
RightFoot  -16.0114 -0.269748 -3.56713
RightToes  -4.65663e-010 0 -3.6325e-017
Spine  1.37603 3.25826 5.41331
Spine1  9.57212 5.24471 -6.7191
HEad  -10.6918 34.1024 -3.76577
LeftShoulder1  8.69957 -11.6178 -50.2116
LeftArm  -7.22751 28.0222 -26.2058
LeftForeArm  28.3035 -5.65144 -5.70243
LeftHand  -0.244104 0.0205437 5.32207
RightShoulder  6.72132 10.1167 43.0054
RightArm  11.2273 -1.5008 34.1662
RightForeArm  5.76037 22.1625 5.15782
RightHand  -1.11992 3.22322 -15.2523
LeftUpLeg  -18.3807 10.7486 -0.249118
LeftLeg  15.4667 -2.76205 -0.999456
LeftFoot  6.57842 0.978932 -6.48855
LeftToes  -7.27628e-011 -1.6005e-012 -1.37987e-011
401
root  47.2952 38.5247 -6.6669 -3.83893 -3.4745 6.81549
RightUpLeg  13.4639 3.97519 -8.71456
RightLeg  33.115 11.4466 7.70818
RightFoot  -8.64213 -0.13919 2.25945
RightToes  -4.65663e-010 0 -3.6325e-017
Spine  2.11109 3.17025 3.65902
Spine1  9.26421 5.11814 -6.88469
HEad  -10.3668 36.45 -3.48321
LeftShoulder1  8.77936 -11.8011 -50.0689
LeftArm  -6.62289 24.9742 -24.0113
LeftForeArm  27.6472 -5.73866 -5.89649
LeftHand  -0.244104 0.0205437 5.32207
RightShoulder  6.79976 10.2161 43.2029
RightArm  0.981666 -1.56509 34.9694
RightForeArm  11.2689 13.0399 6.64671
RightHand  -1.20914 3.38646 -16.1495
LeftUpLeg  -16.8625 12.6173 -1.30202
LeftLeg  18.0449 -2.11557 -0.439585
LeftFoot  2.39322 0.853739 -7.17349
LeftToes  -7.27628e-011 -1.6005e-012 -1.37987e-011
